<svg xmlns="http://www.w3.org/2000/svg" width="856" height="501" fill="none" xmlns:v="https://vecta.io/nano"><style><![CDATA[.B{fill:#ef9e7b}.C{fill-rule:evenodd}.D{fill:#fd5631}.E{fill:#1f1b2d}.F{fill:#454056}]]></style><g filter="url(#A)"><path d="M152.227 333.333H26.244l-6.057-55.352 115.35-158.8h90.583v153.426h31.63v60.726h-31.63v46.35h-73.893v-46.35zm0-60.726v-78.191l-56.262 78.191h56.262z" fill="#fff"/><path d="M724.664 333.332H598.682l-6.057-55.486L707.974 119.18h90.584v153.426h31.63v60.726h-31.63v46.35h-73.759v-46.35h-.135zm0-60.726v-78.191l-56.261 78.191h56.261z" fill="#fff"/><path d="M521.835 345.603c54.193-54.092 54.193-141.793 0-195.886s-142.054-54.093-196.247 0-54.192 141.794 0 195.886 142.055 54.093 196.247 0z" fill="#fff"/></g><path d="M577.955 247.618c0 85.043-69.048 153.964-154.248 153.964M567.726 90.967c-.269 6.046-5.384 10.614-11.441 10.345s-10.633-5.374-10.364-11.42 5.384-10.614 11.441-10.345 10.633 5.374 10.364 11.42z" stroke="#fd5631" stroke-width="1.174" stroke-miterlimit="10"/><path d="M395.575 75.517c.404 1.478 20.863 29.019 20.459 28.347l14.402-16.928-24.093-18.674-10.768 7.255z" class="B"/><path opacity=".1" d="M409.842 67.188l-2.827 24.451-11.979-16.794 14.806-7.658z" fill="#000"/><path d="M397.595 83.713c12.042 0 21.804-9.744 21.804-21.765s-9.762-21.764-21.804-21.764-21.805 9.744-21.805 21.765 9.762 21.765 21.805 21.765z" class="B"/><path d="M378.345 47.841s2.961 10.076 20.459 14.913l3.903 1.881s9.018 15.719 24.227 9.27c0 0 5.519-18.809-17.093-32.512-16.421-9.942-31.496 6.449-31.496 6.449z" class="E"/><path d="M377.805 71.083l-.808 5.24c-.134.672.404 1.209 1.077.941l3.5-.806-3.769-5.374zm32.845-9.27c-.134 3.762-3.365 6.717-7.268 6.583-3.769-.134-6.73-3.359-6.595-7.255.135-3.762 3.365-6.717 7.268-6.583 3.769.269 6.73 3.493 6.595 7.255z" class="B"/><path d="M405.812 58.46c.071.303-.117.607-.42.678-2.09.491-3.034 1.693-3.478 2.758-.227.543-.326 1.059-.368 1.44l-.029.448.001.116.001.026v.003c0 0 0 0-.564.035l-.563.035c.019.311.287.547.598.527s.548-.287.529-.597m-.564.035l-.563.035v-.001l-.001-.002v-.005l-.001-.014-.001-.047-.001-.161.035-.556a6.42 6.42 0 0 1 .448-1.751c.565-1.354 1.775-2.838 4.262-3.422.304-.071.608.117.679.42" class="C F"/><path d="M438.108 40.183c.134 8.195-6.326 15.047-14.537 15.182s-15.074-6.314-15.209-14.51 6.326-15.047 14.536-15.181a14.7 14.7 0 0 1 15.21 14.51z" class="E"/><path d="M381.715 66.516c.269.672-.135 1.343-.808 1.612s-1.346-.134-1.615-.806.135-1.344.808-1.612c.672-.134 1.48.134 1.615.806z" class="F"/><path d="M380.1 65.709c-.673.269-1.077.94-.808 1.612s.942 1.075 1.615.806 1.077-.941.808-1.612c-.135-.672-.943-.941-1.615-.806zm-2.289-3.359l-.367-.428c-.237.203-.264.558-.061.795s.559.264.796.062h-.001-.001v.001l.008-.007.047-.036.209-.138a3.75 3.75 0 0 1 .818-.366c.696-.217 1.695-.312 2.897.228.284.128.619.001.747-.283s.001-.618-.284-.745c-1.49-.669-2.779-.562-3.697-.276a4.88 4.88 0 0 0-1.067.478l-.292.194-.082.062-.024.02-.008.007-.003.002-.001.001h-.001a119.13 119.13 0 0 0 .367.428z" class="C E"/><path d="M388.063 75.719c.037.309-.185.589-.495.626-.997.117-1.411.508-1.595.79-.1.152-.149.297-.173.401-.012.052-.017.092-.019.116-.002.012-.002.019-.002.022v-.003-.002-.001-.001c-.001.311-.253.563-.565.563s-.565-.252-.565-.564h.565c-.565 0-.565 0-.565-.001v-.001-.002-.004l.001-.01.001-.027.006-.081c.006-.065.019-.153.043-.256.047-.206.141-.481.328-.766.387-.592 1.117-1.141 2.408-1.293.31-.036.591.185.627.494z" class="C F"/><path d="M519.001 421.063l17.632 12.494 10.498-18.943-18.17-13.032-9.96 19.481z" class="B"/><path d="M531.117 435.17l16.69-23.377 24.901 16.928-31.765 44.604c-1.481 2.149-4.846.806-4.576-1.747l3.903-29.557-9.153-6.851z" class="E"/><path d="M569.021 426.074l-32.303 45.141-1.241-.885 32.303-45.142 1.241.886zm-26.339 28.62l-4.442 1.612-.521-1.431 4.441-1.612.522 1.431zm.811-5.777l-4.441 1.613-.522-1.432 4.442-1.612.521 1.431z" class="C D"/><path d="M464.356 201.133l-46.302 8.061s-40.379 124.541 96.775 221.407c0 0 14.941-11.285 26.92-33.05 0 0-105.12-63.144-77.393-196.418z" class="F"/><path d="M359.369 450.351v21.63h22.208l.135-22.436-22.343.806z" class="B"/><path d="M355.196 469.966H384l.538 30.094h-54.781c-2.557 0-3.499-3.359-1.211-4.702l26.381-13.973.269-11.419z" class="E"/><path d="M384.671 495.448h-55.588v-1.523h55.588v1.523zm-38.673-4.714l-3.904-2.821.895-1.233 3.904 2.821-.895 1.233zm5.263-2.81l-3.904-2.687.866-1.254 3.904 2.687-.866 1.254z" class="C D"/><path d="M415.767 171.576l1.885 9.539s-64.741 92.835-67.971 275.012c0 0 22.477 4.971 41.994 0 0 0-2.558-153.829 61.645-224.094 0 0 30.15-25.123 12.921-66.099l-50.474 5.642z" fill="#666276"/><path d="M349.521 442.89c.039-.309.322-.527.632-.488l-.072.559-.071.559c-.31-.039-.528-.321-.489-.63zm.56.071l-.071.559.016.002.044.006.175.021.679.077 2.579.256 9.291.6c7.741.319 18.204.32 29.078-.961.31-.037.531-.317.495-.626s-.317-.53-.627-.494c-10.796 1.272-21.195 1.273-28.899.954a194.18 194.18 0 0 1-9.237-.596l-2.557-.253-.669-.076-.169-.021-.043-.005-.013-.002-.072.559zm119.952-266.599c.028.31-.201.584-.512.612l-51.281 4.568c-.311.027-.585-.202-.613-.512s.202-.584.513-.611l51.281-4.568c.31-.028.585.201.612.511z" class="C E"/><path d="M386.688 180.04c-22.343.537-47.781-15.853-68.509-35.737-6.192-5.911-2.827-8.867 3.095-15.047s15.614-6.314 21.805-.537c16.017 15.315 31.899 22.033 47.109 20.152 28.265-3.493 48.32-35.065 48.589-35.334 4.442-7.12 13.998-9.404 21.266-4.971s9.422 13.972 4.981 21.093c-1.077 1.747-27.727 44.201-70.664 49.709-2.692.403-5.249.672-7.672.672z" class="B"/><path opacity=".1" d="M439.885 158.02c-8.366 7.034-18.642 13.724-30.559 17.826l.547-34.053c6.014-3.576 11.29-8.017 15.631-12.311l14.381 28.538z" fill="#000"/><path d="M343.483 134.764l-.539-4.97 2.154.94-6.73-13.569c-.538-1.075-1.346-2.15-2.423-2.822-2.423-1.612-4.307-.94-5.922-1.074-2.827-.269-1.884.537-2.019 3.358-2.961 0-9.018 1.344-12.383-11.688-.673-2.821-3.634-4.434-6.461-3.762-4.172 1.075 3.096-.94 2.962 1.075v.269c-.943-.941-2.423-1.344-3.904-.941-1.749.403-2.961 1.881-3.23 3.628v.671c-.673-.134-1.346-.268-2.019 0-1.75.403-2.961 1.881-3.23 3.628 0 .537 0 .94.134 1.478 0 .134.135.403.135.537h-.269c-1.75.403-1.885 1.209-2.019 2.956 0 .537 0 .94.134 1.478.943 3.627 1.885 5.105 3.231 7.926l.134.135c.673 1.343 1.346 2.418 2.154 3.627 4.307 6.852 14.94 20.018 27.188 23.108 16.017 3.627 12.922-15.988 12.922-15.988z" class="B"/><g class="E"><path d="M291.267 95.132l.134 2.418c0 .806.269 1.478.808 2.015l30.419 36.409c.807 1.075 2.557 2.418 3.903 2.284l13.325-.403c1.481 0 3.096-1.478 3.769-3.225l-40.11-38.423-12.248-1.075z"/><path d="M291.532 96.072l33.246 38.961c.673.806 1.615 1.209 2.692 1.209l14.536-.134c1.077 0 1.75-1.343.942-2.15L309.703 95.4c-.942-1.075-2.288-1.612-3.634-1.612l-13.46.134c-1.211 0-1.75 1.344-1.077 2.15z"/></g><path d="M297.453 97.416l30.15 35.334c.538.537 1.211.94 1.884.806l8.21-.135c.943 0 1.481-1.209.943-1.88l-29.477-34.259c-.808-.94-2.019-1.478-3.23-1.478l-7.942.134c-.672.134-.942.94-.538 1.478z" fill="#f7f4ed"/><path d="M333.119 113.269l-7.403-1.075c-3.096-.537-5.518 2.553-4.307 5.508.404.941 1.077 1.747 2.019 2.15l13.19 6.449-1.884-8.464-1.615-4.568z" class="B"/><path d="M410.648 105.074s-4.845-5.374 4.038-15.316c10.364-11.42 16.017-7.792 20.863-5.508l-24.901 20.825z" fill="#de411e"/><path d="M466.24 165.934s-13.864-19.615-11.979-35.066 5.518-42.185-15.748-49.037c0 0-9.422 0-17.632 8.061-6.999 6.046-23.824 23.242-14.94 41.379 1.076 2.284 2.288 4.031 3.364 5.374.808 9.808 2.827 21.228 6.461 34.797l50.474-5.508z" class="D"/><path d="M442.013 128.719l12.517 38.558 18.709-2.15-35.668-55.889 4.442 19.481z" fill="#de411e"/><path d="M485.217 238.078l.404 2.016-7.672 14.106c-1.076 1.881-.673 4.165.673 5.777 2.019 2.15 5.384 2.016 7.268-.134l1.616-1.747c2.288 1.881 5.114 6.584-1.212 19.212-1.077 2.15-.269 4.703 1.885 5.777 1.615.807 3.634.538 4.845-.671l.135-.135c.134 1.344.942 2.687 2.288 3.359 1.615.806 3.634.537 4.845-.672.135-.134.269-.268.404-.537.404.537.942 1.075 1.615 1.343 1.615.806 3.634.538 4.846-.671.403-.269.673-.672.942-1.21.134-.134.134-.268.269-.537.135 0 .135.134.135.134 1.615.807 3.634.538 4.845-.671.404-.269.673-.672.942-1.209 1.75-3.494 2.961-6.718 3.769-9.808v-.134c.404-1.478.538-2.822.808-4.165.942-6.583 2.153-19.481-1.346-29.691a16.42 16.42 0 0 0 0-3.628c-7.269-56.964-31.9-100.358-49.397-124.81l-26.112 19.481c15.075 21.227 36.879 59.382 43.205 109.225z" class="B"/><path d="M449.954 86.802c-6.326-6.449-16.556-6.449-23.016-.134a16.16 16.16 0 0 0-.135 22.974c.135.134 6.73 6.852 15.344 19.078l26.112-19.481c-9.96-13.838-17.498-21.63-18.305-22.436z" class="D"/><g class="C"><path d="M426.314 109.201c.244-.195.599-.156.794.087l15.344 19.078c.195.242.156.597-.087.792s-.598.156-.794-.087l-15.343-19.077c-.196-.243-.157-.598.086-.793z" class="F"/><path d="M222.165 24.183l-9.735-4.021.728-1.755 9.734 4.021-.727 1.755zm14.179-11.264V4.375h1.903v8.544h-1.903zm-10.077 1.863l-9.063-13.737L218.792 0l9.064 13.737-1.589 1.044z" class="D"/></g><path d="M336.657 60.665h-100.87c-2.182 0-3.861-1.675-3.861-3.853V25.819c0-2.178 1.679-3.853 3.861-3.853h100.87a3.79 3.79 0 0 1 3.86 3.853v30.993a3.79 3.79 0 0 1-3.86 3.853z" class="D"/><path d="M275.9 57.148l10.07 11.559 10.574-11.559H275.9z" class="D"/><g class="C"><path d="M324.906 36.988h-81.569v-1.899h81.569v1.899zM288.317 45.7h-44.98v-1.899h44.98V45.7z" fill="#fff"/><path d="M635.965 500.821H211.852v-1.523h424.113v1.523z" class="D"/></g><defs><filter id="A" x="12.188" y="103.147" width="842" height="309.025" filterUnits="userSpaceOnUse" color-interpolation-filters="sRGB"><feFlood flood-opacity="0" result="A"/><feColorMatrix in="SourceAlpha" values="0 0 0 0 0 0 0 0 0 0 0 0 0 0 0 0 0 0 127 0"/><feMorphology radius="4" in="SourceAlpha"/><feOffset dx="8" dy="10"/><feGaussianBlur stdDeviation="10"/><feColorMatrix values="0 0 0 0 0.588235 0 0 0 0 0.568627 0 0 0 0 0.643137 0 0 0 0.5 0"/><feBlend in2="A"/><feBlend in="SourceGraphic"/></filter></defs></svg>